<?xml version="1.0" encoding="UTF-8" standalone="no"?>
<!DOCTYPE svg PUBLIC "-//W3C//DTD SVG 1.1//EN" "http://www.w3.org/Graphics/SVG/1.1/DTD/svg11.dtd">
<svg version="1.1" xmlns="http://www.w3.org/2000/svg" xmlns:xlink="http://www.w3.org/1999/xlink" preserveAspectRatio="xMidYMid meet" viewBox="0 0 640 640" width="640" height="640"><defs><path d="M524.35 533.97C442.89 533.9 391.98 533.86 371.61 533.84C353.57 533.82 338.95 519.18 338.97 501.14C338.98 483.43 339.02 439.17 339.08 368.35C415.87 368.42 463.86 368.46 483.05 368.48C505.94 368.5 524.48 387.07 524.46 409.96C524.44 426.49 524.41 467.83 524.35 533.97Z" id="dVN0Lor2Y"></path><path d="M327.98 533.01C255.23 533.52 209.76 533.84 191.57 533.97C164.51 534.16 142.43 512.38 142.24 485.33C141.86 431.18 140.91 295.8 139.38 79.19C216.94 78.64 265.41 78.3 284.79 78.16C306.88 78.01 324.91 95.79 325.07 117.88C325.46 173.23 326.43 311.61 327.98 533.01Z" id="a2HGC0BRFT"></path></defs><g><g><g><use xlink:href="#dVN0Lor2Y" opacity="1" fill="#00204d" fill-opacity="1"></use></g><g><use xlink:href="#a2HGC0BRFT" opacity="1" fill="#0060e8" fill-opacity="1"></use></g></g></g></svg>