<?xml version="1.0" encoding="UTF-8" standalone="no"?>
<!DOCTYPE svg PUBLIC "-//W3C//DTD SVG 1.1//EN" "http://www.w3.org/Graphics/SVG/1.1/DTD/svg11.dtd">
<svg version="1.1" xmlns="http://www.w3.org/2000/svg" xmlns:xlink="http://www.w3.org/1999/xlink" preserveAspectRatio="xMidYMid meet" viewBox="0 0 640 640" width="640" height="640"><defs><path d="M15.78 160.6L147.24 160.6L147.24 511.15L15.78 511.15L15.78 160.6Z" id="f3YWurUVPn"></path><path d="M147.24 159.64C147.24 195.92 117.79 225.37 81.51 225.37C45.23 225.37 15.78 195.92 15.78 159.64C15.78 123.37 45.23 93.91 81.51 93.91C117.79 93.91 147.24 123.37 147.24 159.64Z" id="d3hOTHoJ7F"></path><path d="M15.78 254.36L147.24 254.36L147.24 423.29L15.78 423.29L15.78 254.36Z" id="a5zUQYCzc"></path><path d="M15.78 394.3L147.24 394.3L147.24 511.15L15.78 511.15L15.78 394.3Z" id="e25dUXYiP"></path><path d="M147.24 396.21C147.24 432.48 117.79 461.94 81.51 461.94C45.23 461.94 15.78 432.48 15.78 396.21C15.78 359.93 45.23 330.48 81.51 330.48C117.79 330.48 147.24 359.93 147.24 396.21Z" id="dZqIvieXk"></path><path d="M147.24 258.26C147.24 294.53 117.79 323.99 81.51 323.99C45.23 323.99 15.78 294.53 15.78 258.26C15.78 221.98 45.23 192.53 81.51 192.53C117.79 192.53 147.24 221.98 147.24 258.26Z" id="c1aoY27pAk"></path><path d="M147.24 511.15C147.24 547.43 117.79 576.88 81.51 576.88C45.23 576.88 15.78 547.43 15.78 511.15C15.78 474.88 45.23 445.42 81.51 445.42C117.79 445.42 147.24 474.88 147.24 511.15Z" id="d3gzMEXxiQ"></path><path d="M302.71 511.15C302.71 474.88 273.25 445.42 236.98 445.42C200.7 445.42 171.25 474.88 171.25 511.15C171.25 547.43 200.7 576.88 236.98 576.88C273.25 576.88 302.71 547.43 302.71 511.15Z" id="aN8cj6fI6"></path><path d="M331.92 160.6L463.38 160.6L463.38 511.15L331.92 511.15L331.92 160.6Z" id="b3yejeY3pj"></path><path d="M463.38 159.64C463.38 195.92 433.93 225.37 397.65 225.37C361.37 225.37 331.92 195.92 331.92 159.64C331.92 123.37 361.37 93.91 397.65 93.91C433.93 93.91 463.38 123.37 463.38 159.64Z" id="aGYGXQQX"></path><path d="M331.92 254.36L463.38 254.36L463.38 423.29L331.92 423.29L331.92 254.36Z" id="lfztWrEMj"></path><path d="M331.92 394.3L463.38 394.3L463.38 511.15L331.92 511.15L331.92 394.3Z" id="aTngR86Wb"></path><path d="M463.38 396.21C463.38 432.48 433.93 461.94 397.65 461.94C361.37 461.94 331.92 432.48 331.92 396.21C331.92 359.93 361.37 330.48 397.65 330.48C433.93 330.48 463.38 359.93 463.38 396.21Z" id="e1o2zl7BhV"></path><path d="M463.38 258.26C463.38 294.53 433.93 323.99 397.65 323.99C361.37 323.99 331.92 294.53 331.92 258.26C331.92 221.98 361.37 192.53 397.65 192.53C433.93 192.53 463.38 221.98 463.38 258.26Z" id="arkvNvUoM"></path><path d="M463.38 511.15C463.38 547.43 433.93 576.88 397.65 576.88C361.37 576.88 331.92 547.43 331.92 511.15C331.92 474.88 361.37 445.42 397.65 445.42C433.93 445.42 463.38 474.88 463.38 511.15Z" id="c3XExnlAAk"></path><path d="M624.22 159.64C624.22 195.92 594.77 225.37 558.49 225.37C522.21 225.37 492.76 195.92 492.76 159.64C492.76 123.37 522.21 93.91 558.49 93.91C594.77 93.91 624.22 123.37 624.22 159.64Z" id="b6dJHQyYON"></path><path d="M624.22 308.04C624.22 344.32 594.77 373.77 558.49 373.77C522.21 373.77 492.76 344.32 492.76 308.04C492.76 271.77 522.21 242.31 558.49 242.31C594.77 242.31 624.22 271.77 624.22 308.04Z" id="b5QPkkVzC9"></path></defs><g><g><g><g><g><use xlink:href="#f3YWurUVPn" opacity="1" fill="#0060e8" fill-opacity="1"></use></g><g><use xlink:href="#d3hOTHoJ7F" opacity="1" fill="#0060e8" fill-opacity="1"></use></g><g><use xlink:href="#a5zUQYCzc" opacity="1" fill="#003d93" fill-opacity="1"></use></g><g><use xlink:href="#e25dUXYiP" opacity="1" fill="#002c6b" fill-opacity="1"></use></g><g><use xlink:href="#dZqIvieXk" opacity="1" fill="#002c6b" fill-opacity="1"></use></g><g><use xlink:href="#c1aoY27pAk" opacity="1" fill="#003d93" fill-opacity="1"></use></g><g><use xlink:href="#d3gzMEXxiQ" opacity="1" fill="#002354" fill-opacity="1"></use></g></g><g><use xlink:href="#aN8cj6fI6" opacity="1" fill="#002354" fill-opacity="1"></use></g></g><g><g><g><use xlink:href="#b3yejeY3pj" opacity="1" fill="#0060e8" fill-opacity="1"></use></g><g><use xlink:href="#aGYGXQQX" opacity="1" fill="#0060e8" fill-opacity="1"></use></g><g><use xlink:href="#lfztWrEMj" opacity="1" fill="#003d93" fill-opacity="1"></use></g><g><use xlink:href="#aTngR86Wb" opacity="1" fill="#002c6b" fill-opacity="1"></use></g><g><use xlink:href="#e1o2zl7BhV" opacity="1" fill="#002c6b" fill-opacity="1"></use></g><g><use xlink:href="#arkvNvUoM" opacity="1" fill="#003d93" fill-opacity="1"></use></g><g><use xlink:href="#c3XExnlAAk" opacity="1" fill="#002354" fill-opacity="1"></use></g></g><g><g><use xlink:href="#b6dJHQyYON" opacity="1" fill="#0060e8" fill-opacity="1"></use></g><g><use xlink:href="#b5QPkkVzC9" opacity="1" fill="#003d93" fill-opacity="1"></use></g></g></g></g></g></svg>